<svg width="566" height="617" viewBox="0 0 566 617" fill="none" xmlns="http://www.w3.org/2000/svg">
<path d="M95.3398 614.58H197.4L227.82 526.32H125.76L95.3398 614.58Z" fill="#F0FF3E"/>
<path d="M741.54 77.04H204.12L230.16 1.5H767.52L741.54 77.04Z" stroke="#1E407C" stroke-miterlimit="10"/>
<path d="M621.96 502.921H106.38L138.66 409.141H654.24L621.96 502.921Z" stroke="#1E407C" stroke-miterlimit="10"/>
<path d="M287.46 290.46H78.0601L98.0401 232.44H307.44L287.46 290.46Z" stroke="#1E407C" stroke-miterlimit="10"/>
<path d="M321.06 576.9H643.26L674.04 487.5H351.84L321.06 576.9Z" stroke="#1E407C" stroke-miterlimit="10"/>
<path d="M403.8 164.58H193.68L230.64 57.2998H440.76L403.8 164.58Z" stroke="#1E407C" stroke-miterlimit="10"/>
<path d="M526.26 346.98H245.52L270.06 275.76H550.74L526.26 346.98Z" stroke="#1E407C" stroke-miterlimit="10"/>
<path d="M145.74 322.8H2.1001L18.2401 275.94H161.88L145.74 322.8Z" stroke="#1E407C" stroke-miterlimit="10"/>
</svg>
