<svg xmlns="http://www.w3.org/2000/svg" width="24" height="24" viewBox="0 0 24 24" fill="none">
  <mask id="mask0_36960_22451" style="mask-type:alpha" maskUnits="userSpaceOnUse" x="0" y="0" width="24" height="24">
    <rect width="24" height="24" fill="#D9D9D9"/>
  </mask>
  <g mask="url(#mask0_36960_22451)">
    <path d="M13.9422 18.9326C13.6854 18.6758 13.5623 18.3654 13.573 18.0016C13.5837 17.6378 13.7175 17.3274 13.9743 17.0706L17.6019 13.443H3.28411C2.92028 13.443 2.6153 13.32 2.36918 13.0738C2.12306 12.8277 2 12.5227 2 12.1589C2 11.7951 2.12306 11.4901 2.36918 11.244C2.6153 10.9979 2.92028 10.8748 3.28411 10.8748H17.6019L13.9422 7.21509C13.6854 6.95827 13.557 6.65329 13.557 6.30016C13.557 5.94703 13.6854 5.64205 13.9422 5.38523C14.199 5.12841 14.504 5 14.8571 5C15.2103 5 15.5152 5.12841 15.7721 5.38523L21.6469 11.26C21.7753 11.3884 21.8662 11.5276 21.9197 11.6774C21.9732 11.8272 22 11.9877 22 12.1589C22 12.3301 21.9732 12.4906 21.9197 12.6404C21.8662 12.7903 21.7753 12.9294 21.6469 13.0578L15.74 18.9647C15.5045 19.2001 15.2103 19.3178 14.8571 19.3178C14.504 19.3178 14.199 19.1894 13.9422 18.9326Z" fill="#1E407C"/>
  </g>
</svg>