<svg xmlns="http://www.w3.org/2000/svg" width="24" height="24" viewBox="0 0 24 24" fill="none">
  <mask id="mask0_35793_29052" style="mask-type:alpha" maskUnits="userSpaceOnUse" x="0" y="0" width="24" height="24">
    <rect width="24" height="24" fill="#D9D9D9"/>
  </mask>
  <g mask="url(#mask0_35793_29052)">
    <path d="M12.0117 17.7585C11.7728 17.7585 11.5488 17.7212 11.3398 17.6465C11.1308 17.5719 10.9367 17.445 10.7575 17.2658L2.47128 8.97955C2.14281 8.65109 1.98604 8.24051 2.00097 7.74781C2.0159 7.25511 2.1876 6.84453 2.51607 6.51607C2.84453 6.1876 3.26258 6.02337 3.7702 6.02337C4.27783 6.02337 4.69588 6.1876 5.02434 6.51607L12.0117 13.5034L19.0438 6.47128C19.3723 6.14281 19.7829 5.98604 20.2756 6.00097C20.7683 6.0159 21.1788 6.1876 21.5073 6.51607C21.8358 6.84453 22 7.26258 22 7.7702C22 8.27783 21.8358 8.69588 21.5073 9.02434L13.2658 17.2658C13.0867 17.445 12.8926 17.5719 12.6835 17.6465C12.4745 17.7212 12.2506 17.7585 12.0117 17.7585Z" fill="#005FA9"/>
  </g>
</svg>