<svg xmlns="http://www.w3.org/2000/svg" width="24" height="24" viewBox="0 0 24 24" fill="none">
  <mask id="mask0_35793_28827" style="mask-type:alpha" maskUnits="userSpaceOnUse" x="0" y="0" width="24" height="24">
    <rect width="24" height="24" fill="#D9D9D9"/>
  </mask>
  <g mask="url(#mask0_35793_28827)">
    <path d="M2.49217 17.2304C2.16406 16.9023 2 16.4847 2 15.9776C2 15.4705 2.16406 15.0529 2.49217 14.7248L10.7248 6.49217C10.9038 6.3132 11.0977 6.18643 11.3065 6.11186C11.5153 6.03729 11.739 6 11.9776 6C12.2163 6 12.44 6.03729 12.6488 6.11186C12.8576 6.18643 13.0515 6.3132 13.2304 6.49217L21.5078 14.7696C21.8359 15.0977 22 15.5004 22 15.9776C22 16.4549 21.821 16.8725 21.4631 17.2304C21.135 17.5585 20.7174 17.7226 20.2103 17.7226C19.7032 17.7226 19.2856 17.5585 18.9575 17.2304L11.9776 10.2506L4.95302 17.2752C4.62491 17.6033 4.22222 17.7673 3.74497 17.7673C3.26771 17.7673 2.85011 17.5884 2.49217 17.2304Z" fill="#005FA9"/>
  </g>
</svg>