<svg width="24" height="24" viewBox="0 0 24 24" fill="none" xmlns="http://www.w3.org/2000/svg">
<g id="arrow-left">
<mask id="mask0_34890_59" style="mask-type:alpha" maskUnits="userSpaceOnUse" x="0" y="0" width="24" height="24">
<rect id="Bounding box" x="24" y="24" width="24" height="24" transform="rotate(-180 24 24)" fill="#D9D9D9"/>
</mask>
<g mask="url(#mask0_34890_59)">
<path id="arrow-left_2" d="M10.0578 5.06742C10.3146 5.32424 10.4377 5.63456 10.427 5.99839C10.4163 6.36223 10.2825 6.67255 10.0257 6.92937L6.39807 10.557L20.7159 10.557C21.0797 10.557 21.3847 10.68 21.6308 10.9262C21.8769 11.1723 22 11.4773 22 11.8411C22 12.2049 21.8769 12.5099 21.6308 12.756C21.3847 13.0021 21.0797 13.1252 20.7159 13.1252L6.39807 13.1252L10.0578 16.7849C10.3146 17.0417 10.443 17.3467 10.443 17.6998C10.443 18.053 10.3146 18.3579 10.0578 18.6148C9.80096 18.8716 9.49599 19 9.14286 19C8.78973 19 8.48475 18.8716 8.22793 18.6148L2.35313 12.74C2.22472 12.6116 2.13376 12.4724 2.08026 12.3226C2.02675 12.1728 2 12.0123 2 11.8411C2 11.6699 2.02675 11.5094 2.08026 11.3596C2.13376 11.2097 2.22472 11.0706 2.35313 10.9422L8.26003 5.03531C8.49545 4.79989 8.78973 4.68218 9.14286 4.68218C9.49599 4.68218 9.80096 4.81059 10.0578 5.06742Z" fill="#CCE9FF"/>
</g>
</g>
</svg>
